<svg xmlns="http://www.w3.org/2000/svg" width="200" height="60" viewBox="0 0 200 60">
  <defs>
    <linearGradient id="logoGradient" x1="0%" y1="0%" x2="100%" y2="100%">
      <stop offset="0%" style="stop-color:#3182ce;stop-opacity:1" />
      <stop offset="100%" style="stop-color:#2c5282;stop-opacity:1" />
    </linearGradient>
  </defs>
  
  <!-- Background circle -->
  <circle cx="30" cy="30" r="28" fill="url(#logoGradient)" stroke="#ffffff" stroke-width="2" />
  
  <!-- Car silhouette -->
  <path d="M15,35 C15,32 20,30 30,30 C40,30 45,32 45,35 L45,40 C45,42 40,42 40,40 L40,38 L20,38 L20,40 C20,42 15,42 15,40 Z" fill="#ffffff" />
  <path d="M18,30 L20,25 L40,25 L42,30 Z" fill="#ffffff" />
  <circle cx="20" cy="38" r="3" fill="#2c5282" stroke="#ffffff" stroke-width="1" />
  <circle cx="40" cy="38" r="3" fill="#2c5282" stroke="#ffffff" stroke-width="1" />
  
  <!-- Text -->
  <text x="70" y="35" font-family="Arial" font-weight="bold" font-size="24" fill="#2c5282">AutoMarket</text>
  <text x="70" y="50" font-family="Arial" font-size="12" fill="#4a5568">Vehículos Premium</text>
</svg>